<svg width="120" height="140" viewBox="0 0 120 140" fill="none" xmlns="http://www.w3.org/2000/svg">
  <!-- Orange circles at top -->
  <circle cx="60" cy="15" r="8" fill="#e57c06"/>
  <circle cx="40" cy="25" r="6" fill="#e57c06"/>
  <circle cx="80" cy="25" r="6" fill="#e57c06"/>
  <circle cx="30" cy="40" r="5" fill="#e57c06"/>
  <circle cx="90" cy="40" r="5" fill="#e57c06"/>
  
  <!-- Stem -->
  <rect x="58" y="23" width="4" height="20" fill="#72843a"/>
  
  <!-- Main KP logo circle -->
  <circle cx="60" cy="70" r="45" fill="url(#gradient1)"/>
  
  <!-- K letter in white -->
  <path d="M40 50 L40 90 L45 90 L45 72 L55 90 L62 90 L50 70 L60 50 L53 50 L45 65 L45 50 Z" fill="white"/>
  
  <!-- P letter continuation -->
  <path d="M70 50 L70 90 L75 90 L75 72 L85 72 C90 72 95 67 95 62 C95 57 90 50 85 50 L70 50 Z M75 55 L85 55 C87 55 90 57 90 62 C90 67 87 67 85 67 L75 67 Z" fill="white"/>
  
  <!-- DEHY text -->
  <text x="10" y="125" font-family="Arial, sans-serif" font-size="16" font-weight="bold" fill="#214b3d">DEHY</text>
  
  <!-- FOODS text -->
  <text x="35" y="138" font-family="Arial, sans-serif" font-size="10" font-weight="normal" fill="#72843a" letter-spacing="2px">FOODS</text>
  
  <defs>
    <linearGradient id="gradient1" x1="0%" y1="0%" x2="100%" y2="100%">
      <stop offset="0%" style="stop-color:#e57c06;stop-opacity:1" />
      <stop offset="50%" style="stop-color:#214b3d;stop-opacity:1" />
      <stop offset="100%" style="stop-color:#72843a;stop-opacity:1" />
    </linearGradient>
  </defs>
</svg>
